<svg xmlns="http://www.w3.org/2000/svg" viewBox="0 0 100 100"><circle cx="50" cy="50" r="48" stroke="#1c69d4" stroke-width="2" style="fill:#1c69d4"/><circle cx="50" cy="50" r="36" fill="#fff"/><path fill="#fff" d="M50 14v36L14.4 32.8a36 36 0 0 1 18.4-18.4Z"/><path fill="#1c69d4" d="m50 14 35.6 18.8a36 36 0 0 1-18.4-18.4Zm0 36V14M50 50 14.4 67.2a36 36 0 0 1 18.4 18.4Zm0 36V50"/><path fill="#fff" d="M50 50v36l35.6-18.8a36 36 0 0 1-18.4 18.4Z"/><text x="50" y="56" font-size="10" style="fill:#1c69d4;font-family:Arial,sans-serif;font-weight:700" text-anchor="middle">BMW</text></svg>