<svg xmlns="http://www.w3.org/2000/svg" width="800" height="800" viewBox="0 0 24 24"><path d="m3 18 .117.007a1 1 0 0 1 .876.876L4 19v1h1l.117.007a1 1 0 0 1 0 1.986L5 22H3l-.117-.007a1 1 0 0 1-.876-.876L2 21v-2l.007-.117a1 1 0 0 1 .876-.876zm18 0 .117.007a1 1 0 0 1 .857.764l.02.112L22 19v2l-.007.117a1 1 0 0 1-.764.857l-.112.02L21 22h-2l-.117-.007a1 1 0 0 1-.112-1.967l.112-.02L19 20h1v-1l.007-.117a1 1 0 0 1 .764-.857l.112-.02zm-8 2a1 1 0 0 1 0 2h-2a1 1 0 0 1 0-2zM3 10a1 1 0 0 1 1 1v2a1 1 0 0 1-2 0v-2a1 1 0 0 1 1-1m18 0a1 1 0 0 1 1 1v2a1 1 0 0 1-2 0v-2a1 1 0 0 1 1-1m0-8 .117.007a1 1 0 0 1 .876.876L22 3v2l-.007.117a1 1 0 0 1-.876.876L21 6l-.117-.007a1 1 0 0 1-.876-.876L20 5V4h-1l-.117-.007a1 1 0 0 1 0-1.986L19 2zM5 2l.117.007a1 1 0 0 1 .112 1.967l-.112.02L5 4H4v1l-.007.117a1 1 0 0 1-.764.857l-.112.02L3 6l-.117-.007a1 1 0 0 1-.857-.764l-.02-.112L2 5V3l.007-.117a1 1 0 0 1 .764-.857l.112-.02L3 2zm10 4a3 3 0 0 1 2.995 2.824L18 9v6a3 3 0 0 1-2.824 2.995L15 18H9a3 3 0 0 1-2.995-2.824L6 15V9a3 3 0 0 1 2.824-2.995L9 6zm0 2H9a1 1 0 0 0-.993.883L8 9v6a1 1 0 0 0 .883.993L9 16h6a1 1 0 0 0 .993-.883L16 15V9a1 1 0 0 0-.883-.993zm-2-6a1 1 0 0 1 0 2h-2a1 1 0 0 1 0-2z"/></svg>